<?xml version="1.0" encoding="utf-8"?>
<!-- Generator: Adobe Illustrator 22.0.0, SVG Export Plug-In . SVG Version: 6.00 Build 0)  -->
<svg version="1.1" id="Layer_1" xmlns="http://www.w3.org/2000/svg" xmlns:xlink="http://www.w3.org/1999/xlink" x="0px" y="0px"
	 viewBox="0 0 1190.9 321.6" style="enable-background:new 0 0 1190.9 321.6;" xml:space="preserve">
<style type="text/css">
	.st0{fill:#F4272C;stroke:#F4272C;stroke-miterlimit:10;}
	.st1{fill:#37AFE4;stroke:#37AFE4;stroke-miterlimit:10;}
	.st2{display:none;}
	.st3{display:inline;}
	.st4{enable-background:new    ;}
	.st5{fill:#ED2C44;}
	.st6{fill:#37AFE4;}
	.st7{fill:none;stroke:#231F20;stroke-width:2.8647;stroke-linejoin:round;stroke-miterlimit:10;}
	.st8{fill:#36AEE4;}
</style>
<g id="Layer_1_1_">
	<g>
		<path class="st0" d="M744.3,76c-4.8,8.6-12.5,22.1-23,40.3c-3,5.3-6.1,10.7-9.1,16.5c4.7,0.2,7.8,0.3,9.7,0.3
			c1.9,0,4.7-0.3,8.2-0.7c1,0.5,1.1,1.3,0.3,2.4c-2.5,1.2-9.2,1.8-20.1,1.8c-0.7,1.3-1.4,2.6-2.1,3.9c5.3,2.9,7.9,7.1,7.9,12.2
			c0,3.9-1.4,6.9-4.1,9.2c-2.7,2.3-5.7,3.4-9,3.4c-2.9,0-5.3-1-7.3-3.1c-2-2.1-2.9-4.7-2.9-8.1c0-2.8,1.8-7.7,5.5-14.5
			c-5.2-1.6-11.5-2.5-19.1-2.9c-24,19.3-47.1,29-69.4,29c-10.1,0-18.6-2.2-25.4-6.4c-7.8-4.8-11.7-11.5-11.7-20.3
			c0-10.1,5.5-18.7,16.6-25.7c10.3-6.5,21.6-9.7,34.3-9.7c13.4,0,23.9,2.7,31.5,7.9c0.3,0.3,0.3,0.5,0.3,0.7c0,1.4-0.7,1.8-2.2,1.5
			c-5.7-4.6-14.2-6.9-25.7-6.9c-12.1,0-23.2,3.5-33.4,10.5c-10.8,7.3-16.1,15.8-16.1,25.4c0,6.1,3.1,11.1,9.3,14.9
			c5.8,3.5,12.8,5.3,21.1,5.3c22,0,44.1-8.9,66.3-26.5l-11.5-0.3l-50.2-0.3c-2.2,0-3.5,0-4,0c-0.8-0.2-1.2-0.6-1.2-1.2
			c0-0.7,1.1-1.7,3.3-2.9c2.2-1.2,4.2-1.9,5.9-1.9c1.2,0,8.9,0.3,23,0.7c15.9,0.6,26.7,0.9,32.8,1.1l7.3,0.1
			c2.1-1.7,3.9-3.4,5.3-4.8c16.7-16.4,33.9-33.3,51.5-50.6c1.3-1.1,2.9-1.9,4.9-2.4c1.7-0.4,2.5-0.2,2.5,0.7
			C744.8,75.1,744.6,75.5,744.3,76z M733.6,84l-0.9-0.1c-0.6,0.6-5.9,6.1-15.8,16.4c-10.6,10.9-17.9,18.4-22.1,22.5
			c-3.1,3.1-6.5,6.2-10,9.3l17.6,0.5c2.4-4,6.3-10.1,11.7-18.4L733.6,84z M710.8,150.6c0-2.8-1.4-5.2-4.1-7.2
			c-4.6,9-6.9,14.6-6.9,16.5c0,2.3,1,3.5,3,3.5c1.8,0,3.6-1.3,5.3-4C709.9,156.7,710.8,153.7,710.8,150.6z"/>
		<path class="st0" d="M768.1,127.5c1.2,0,2.3,0,3.5,0.1c1.1,0,2.2,0.1,3.4,0.1c0.9,0,1.3,0.4,1.3,1.2c0,0.3,0,0.6-0.1,0.7
			c-1.8,3.6-3.6,7.2-5.3,10.7c-1.7,3.5-3.2,6.7-4.5,9.7c-1.3,2.9-2.4,5.3-3.1,7.2c-0.8,1.9-1.1,3-1.1,3.4c0,1,0.4,1.6,1.3,1.6
			c0.5,0,1.1-0.3,2.1-0.7c0.9-0.5,1.8-1.1,2.8-1.9c0.9-0.8,1.9-1.6,2.8-2.5c0.9-0.9,1.7-1.7,2.3-2.4h0.1c0.3,0,0.6,0.1,0.9,0.3
			c0.3,0.3,0.4,0.6,0.4,0.9c-0.9,1.2-1.9,2.4-3,3.5c-1.1,1.1-2.3,2.1-3.5,2.9c-1.2,0.9-2.4,1.5-3.7,2c-1.2,0.5-2.3,0.7-3.3,0.7
			c-4.1,0-6-1.9-6-5.8c0-0.6,0.3-1.7,0.9-3.4s1.4-3.9,2.4-6.5s2.2-5.5,3.7-8.8c1.5-3.3,3-6.8,4.7-10.5c-1.9,0.2-3.6,1.1-5.2,2.9
			c-1.6,1.8-3,3.9-4.5,6.5c-1.5,2.5-2.9,5.3-4.3,8.2c-1.5,2.9-3,5.7-4.7,8.2s-3.6,4.7-5.7,6.4c-2.1,1.7-4.5,2.7-7.1,2.7
			c-2,0-3.7-0.8-5.1-2.3s-2.1-3.4-2.1-5.5c0-2,0.6-3.5,1.7-4.7c1.1-1.1,2.4-1.6,3.7-1.6c2.4,0,3.6,1.2,3.6,3.5
			c0,0.9-0.3,1.6-0.9,2.3c-0.6,0.7-1.2,1.4-1.8,2s-1,1.2-1.2,1.8c-0.2,0.6,0.2,1.1,1,1.7c2.3,0.4,4.5-0.2,6.4-1.7s3.8-3.6,5.5-6.2
			c1.7-2.6,3.4-5.4,4.9-8.5c1.6-3.1,3.2-5.9,4.9-8.7c1.7-2.7,3.5-4.9,5.4-6.7C763.6,128.3,765.7,127.5,768.1,127.5
			C768,127.5,768.1,127.5,768.1,127.5z"/>
		<path class="st0" d="M816.4,127.5c1.2,0,2.3,0,3.5,0.1c1.1,0,2.2,0.1,3.4,0.1c0.9,0,1.3,0.4,1.3,1.2c0,0.3,0,0.6-0.1,0.7
			c-1.8,3.6-3.6,7.2-5.3,10.7c-1.7,3.5-3.2,6.7-4.5,9.7c-1.3,2.9-2.4,5.3-3.1,7.2c-0.8,1.9-1.1,3-1.1,3.4c0,1,0.4,1.6,1.3,1.6
			c0.5,0,1.1-0.3,2.1-0.7c0.9-0.5,1.8-1.1,2.8-1.9c0.9-0.8,1.9-1.6,2.8-2.5c0.9-0.9,1.7-1.7,2.3-2.4h0.1c0.3,0,0.6,0.1,0.9,0.3
			c0.3,0.3,0.4,0.6,0.4,0.9c-0.9,1.2-1.9,2.4-3,3.5c-1.1,1.1-2.3,2.1-3.5,2.9c-1.2,0.9-2.4,1.5-3.7,2c-1.2,0.5-2.3,0.7-3.3,0.7
			c-4.1,0-6-1.9-6-5.8c0-0.6,0.3-1.7,0.9-3.4s1.4-3.9,2.4-6.5s2.2-5.5,3.7-8.8c1.5-3.3,3-6.8,4.7-10.5c-1.9,0.2-3.6,1.1-5.2,2.9
			c-1.6,1.8-3,3.9-4.5,6.5c-1.5,2.5-2.9,5.3-4.3,8.2c-1.5,2.9-3,5.7-4.7,8.2s-3.6,4.7-5.7,6.4c-2.1,1.7-4.5,2.7-7.1,2.7
			c-2,0-3.7-0.8-5.1-2.3c-1.4-1.6-2.1-3.4-2.1-5.5c0-2,0.6-3.5,1.7-4.7c1.1-1.1,2.4-1.6,3.7-1.6c2.4,0,3.6,1.2,3.6,3.5
			c0,0.9-0.3,1.6-0.9,2.3c-0.6,0.7-1.2,1.4-1.8,2s-1,1.2-1.2,1.8c-0.2,0.6,0.2,1.1,1,1.7c2.3,0.4,4.5-0.2,6.4-1.7s3.8-3.6,5.5-6.2
			c1.7-2.6,3.4-5.4,4.9-8.5c1.6-3.1,3.2-5.9,4.9-8.7c1.7-2.7,3.5-4.9,5.4-6.7C811.9,128.3,814,127.5,816.4,127.5
			C816.4,127.5,816.4,127.5,816.4,127.5z"/>
		<path class="st0" d="M865,129c0,0.3-0.3,0.7-0.7,1.5c-0.2,0.3-2.3,5.1-6.4,14.5c-3.6,8.3-5.4,13.3-5.4,15.1c0,1.2,0.5,1.8,1.5,1.8
			c1.8,0,4.9-2.5,9.1-7.5c0.3-0.1,0.7,0,1,0.3c0.3,0.3,0.5,0.7,0.4,1.1c-4.3,6.2-8.9,9.3-13.5,9.3c-3.8,0-5.7-1.9-5.7-5.7
			c0-1.3,0.6-3.6,1.9-7.1c-6.6,8.4-11.8,12.5-15.8,12.5c-4.1,0-6.1-2.5-6.1-7.6c0-7.1,3.5-13.8,10.5-20.3c6.7-6.2,13.7-9.3,20.9-9.3
			c3.6,0,6.2,0.3,7.8,0.7C864.8,128.6,865,128.8,865,129z M854.7,133c0-1.5-0.6-2.2-1.7-2.2c-3.3,0-7.8,3.9-13.3,11.5
			c-5.6,7.7-8.4,13.4-8.4,17.2c0,1.5,0.6,2.2,1.9,2.2c2.1,0,6.3-4,12.7-11.9c2.9-3.7,5.1-7.1,6.6-10
			C854,136.9,854.7,134.6,854.7,133z"/>
		<path class="st0" d="M922.6,129.1c0-0.3-0.6,0.8-1.7,3c-1.7,3.4-4,8.3-6.7,14.6c-3.5,7.9-5.3,12.5-5.3,13.7c0,1.2,0.7,1.8,2.2,1.8
			c2.9,0,5.9-2.6,8.8-7.7c1.5-0.5,2.2-0.3,2.3,0.7c-1.1,2-2.7,4-4.6,5.8c-2.8,2.7-5.3,4-7.8,4c-4.6,0-6.9-1.8-6.9-5.4
			c0-2.6,1.2-6.7,3.7-12.5c1.7-4.1,3.2-7.2,4.6-9.5l-0.3-0.6c-2,1.1-5.9,5.4-11.7,12.9c-2.9,4-5.8,8.3-8.3,12.9
			c-0.5,1-2.4,1.8-5.8,2.2c-1.1,0.2-1.7,0-1.7-0.6c0-0.4,1.8-4.5,5.5-12.2c4.1-8.3,6.3-13,6.7-14.3l-0.5-0.6
			c-1.9,1-5.9,5.3-11.7,12.9c-3.8,4.8-6.8,8.9-9.1,12.2c-0.3,0.5-0.9,1-2.2,1.6c-1.2,0.6-2.3,0.9-3.3,0.9s-1.5-0.5-1.5-1.5
			c0-0.6,2.2-5.3,6.6-14.2c4-8,5.9-13,5.9-15.1c0-1.6-0.6-2.3-1.7-2.3c-0.2,0-1.6,0.4-4.2,1.3c-0.3,0-0.6-0.3-0.8-0.8
			c-0.2-0.5-0.3-0.9-0.1-1.1c2.9-2.2,6-3.3,9.5-3.3c3.2,0,4.8,1.4,4.8,4.2c0,2.6-2.1,8-6.3,16.4l0.5,0.1c2.3-3.2,5.5-6.9,9.7-11.1
			c4.1-4.1,7.1-6.8,8.8-7.9c1.7-1.1,3.7-1.6,5.9-1.6c1.1,0,1.7,0.3,1.7,0.9c0-0.1-0.6,1-1.7,3.3l-6.9,13.9
			c6.9-8.6,12.4-14.1,16.6-16.6c1.7-1.1,3.5-1.7,5.3-1.7C922,127.8,922.6,128.2,922.6,129.1z"/>
		<path class="st0" d="M1065.5,98.2c0,10.1-5.6,19.6-16.9,28.4c-10.9,8.5-22.2,12.8-33.7,12.8c-1.3,0-2.5,0-3.6-0.1
			c-6.5,14-15.3,26-26.4,35.9c-11.5,10.3-22.6,15.5-33,15.5c-5.6,0-9.7-1.2-12.3-3.5c-0.5-1.2,0.1-1.8,1.7-1.9
			c3,1.7,6.3,2.7,9.7,2.7c6.4,0,12.8-2.2,19.2-6.7c6.5-4.5,12.5-10.8,18.1-18.9c3.9-5.6,8.6-13.9,14.2-24.8
			c-7.8-2.9-11.8-8.4-11.8-16.3c0-8.8,4.1-16.2,12.4-22.4c5.9-4.4,11.4-7.1,16.6-7.8c0.6,0.1,1.1,0.3,1.3,0.7
			c0.3,0.3,0.2,0.6-0.3,0.9c-4.1,1-8.7,3.8-13.6,8.2c-7.1,6.3-10.6,13.4-10.6,21.5c0,6.5,2.3,10.7,7.1,12.8
			c2.9-5.4,5.8-10.9,8.5-16.5c3.1-5.9,5.8-10.5,7.9-13.9c4-6.1,7.7-11.1,11.2-15.1c3.3-3.8,5.5-5.7,6.7-5.7s1.8,0.3,1.8,0.9
			c-0.9,1.2-2.1,2.4-3.3,3.7c-3.6,4.4-11.7,20.4-24.3,48.1h1.1c10.5,0.2,20.7-4.7,30.3-14.6c9.2-9.4,13.9-18.4,13.9-27.1
			c0-11.8-8-17.7-24-17.7c-16.2,0-32,3.6-47.3,10.9c-14.4,6.8-26.1,15.8-35.2,26.9c-9,11.1-13.6,22.2-13.6,33.4
			c0,2.8,0.3,5.4,1.1,8.1c0.2,1-0.3,1.6-1.3,1.6c-0.4,0-0.8-0.1-1.1-0.3c-1.2-2.7-1.8-7.2-1.8-13.5c0-13.3,5.2-25.5,15.4-36.9
			c9.2-10.1,21.4-18.3,36.5-24.5c14.6-5.9,28.9-8.8,43-8.8C1053.5,74.5,1065.5,82.4,1065.5,98.2z"/>
		<path class="st0" d="M1091.5,129c0,0.3-0.3,0.7-0.7,1.5c-0.2,0.3-2.3,5.1-6.4,14.5c-3.6,8.3-5.4,13.3-5.4,15.1
			c0,1.2,0.5,1.8,1.5,1.8c1.8,0,4.9-2.5,9.1-7.5c0.3-0.1,0.7,0,1,0.3c0.3,0.3,0.5,0.7,0.4,1.1c-4.3,6.2-8.9,9.3-13.5,9.3
			c-3.8,0-5.7-1.9-5.7-5.7c0-1.3,0.6-3.6,1.9-7.1c-6.6,8.4-11.8,12.5-15.8,12.5c-4.1,0-6.1-2.5-6.1-7.6c0-7.1,3.5-13.8,10.5-20.3
			c6.7-6.2,13.7-9.3,20.9-9.3c3.6,0,6.2,0.3,7.8,0.7C1091.2,128.6,1091.5,128.8,1091.5,129z M1081.2,133c0-1.5-0.6-2.2-1.7-2.2
			c-3.3,0-7.8,3.9-13.3,11.5c-5.6,7.7-8.4,13.4-8.4,17.2c0,1.5,0.6,2.2,1.9,2.2c2.1,0,6.3-4,12.7-11.9c2.9-3.7,5.1-7.1,6.6-10
			C1080.4,136.9,1081.2,134.6,1081.2,133z"/>
		<path class="st1" d="M823.2,195.3c0,7.1-4,13.8-11.9,20.1c-6.2,5-14,9.1-23.3,12.4c2.2-0.4,4.5-0.6,6.6-0.6
			c5.5,0,9.8,1.5,12.8,4.3c2.8,2.7,4.1,6.2,4.1,10.6c0,7.1-3.4,14.1-10.3,21.1c-7.1,7.2-14.6,10.7-22.4,10.7
			c-8.5,0-12.8-3.5-12.8-10.5c0-2,0.6-3.8,1.9-5.3c1.3-1.6,2.8-2.3,4.6-2.3c3.4,0,5.2,1.8,5.2,5.5c0,2-0.7,3.6-2.1,4.9
			c-1.4,1.2-2.9,1.9-4.7,1.9c-1,0-1.6,0.2-1.6,0.6c0,0.4,0.6,0.9,1.8,1.6c1.6,0.8,3.3,1.2,5.2,1.2c5.9,0,11.6-2.9,17.4-8.8
			c5.8-5.9,8.6-12.2,8.6-19.1c0-4.1-1.4-7.4-4.2-9.7c-2.4-2.1-5.3-3.1-8.7-3.1c-2.5,0-4.5,0.3-5.9,0.7c-0.6,0.3-1.2,0.6-1.8,0.9
			c-0.4,0-0.7-0.3-0.9-0.7c-0.3-0.5-0.3-0.9-0.1-1.3c0.6-0.6,1.9-1.1,3.9-1.6c-0.4-0.2-0.6-0.4-0.6-0.7c0-0.4,0.3-0.7,0.9-0.9
			c7.1-2.8,13.5-6.8,19.3-12.1c7.2-6.6,10.9-13.4,10.9-20.3c0-2.9-1-5.2-3-6.6c-2.5-1.6-6.8-2.4-13-2.4c-13,0-28,3.8-45.2,11.4
			c-17.1,7.6-31.4,16.8-42.9,27.7c-12.7,12-19,23.3-19,34c0,4.1,1.7,7.3,5.1,9.7c3.4,2.4,8,3.5,13.8,3.5c9.3,0,18.4-2.9,27.5-8.9
			c7.5-4.9,14-11.2,19.5-18.8c2.2-3,7.3-10.8,15.4-23.3c6.5-9.9,10.9-16.3,13.6-19.1c6.5-6.9,10.6-10.3,12.4-10.3
			c0.9,0,1.5,0.4,1.5,1.2c0,0.2-0.8,0.9-2.3,2.3c-2,1.8-3.8,3.9-5.3,6c-3.1,5.6-6.3,11.3-9.5,17c-5.7,10.1-11.2,18.4-16.5,24.8
			c-17.2,21.1-36.3,31.7-57.1,31.7c-7.5,0-13.4-1.8-17.8-5.3c-4.4-3.5-6.6-8.5-6.6-14.7c0-10.3,6.6-21.3,19.7-32.9
			c12.2-10.7,27.1-19.7,44.9-27c18.3-7.5,34.6-11.2,49-11.2C815.2,183.2,823.2,187.3,823.2,195.3z"/>
		<path class="st1" d="M844.1,241.7c0,5.3-3,9.9-9,14.1c-4.8,3.2-9.2,5-13.3,5.4c-0.9,2.6-1.5,4.6-1.5,5.9c0,2.8,1.5,4.2,4.5,4.2
			c2.4,0,5.2-1.1,8.2-3.3c2.4-1.7,4.2-3.5,5.5-5.3c1-0.6,1.7-0.2,1.9,1.1c-1.4,1.9-3.3,3.8-5.7,5.7c-3.8,2.8-7.5,4.1-11.1,4.1
			c-6.2,0-9.3-3-9.3-9.1c0-6.2,2.7-12.4,8.1-18.7c5.3-6.3,10.4-9.5,15.2-9.5C842,236.2,844.1,238,844.1,241.7z M839.1,241
			c0-1.6-0.6-2.3-1.7-2.3c-1.7,0-4.1,2.2-7.2,6.7c-2.9,4.1-5.3,8.4-7.5,13.1c3.6-0.2,7.2-2.2,10.9-6.3
			C837.3,248.3,839.1,244.5,839.1,241z"/>
		<path class="st1" d="M875.7,242.8c0,2-0.6,3.5-1.7,4.7c-1.2,1.1-2.4,1.6-3.7,1.6c-2.4,0-3.6-1.1-3.6-3.5c0-1.1,0.6-2.2,1.9-3.2
			c1.2-1,1.9-1.7,1.9-2.2c0-0.8-0.4-1.2-1.2-1.2c-2.8,0-6,4.1-10,12.3c-3.6,7.7-5.4,13.4-5.4,17c0,1.8,0.8,2.7,2.3,2.7
			c2,0,4.5-1.3,7.5-3.9c2.5-2.1,4.2-4,5.2-5.5c0.4-0.2,0.9-0.1,1.3,0.3c0.4,0.3,0.7,0.9,0.7,1.4c-1.5,2-3.4,4.1-5.7,6
			c-3.5,3-6.9,4.6-10.1,4.6c-5.3,0-7.8-3.4-7.8-10c0-5.8,2.6-11.8,7.7-18.1s10.1-9.4,15-9.4C873.7,236.2,875.7,238.4,875.7,242.8z"
			/>
		<path class="st1" d="M932,237.8c0-0.3-0.6,0.8-1.7,3c-1.7,3.4-4,8.3-6.7,14.6c-3.5,7.9-5.3,12.5-5.3,13.7c0,1.2,0.7,1.8,2.2,1.8
			c2.9,0,5.9-2.6,8.8-7.7c1.5-0.5,2.2-0.3,2.3,0.7c-1.1,2-2.7,4-4.6,5.8c-2.8,2.7-5.3,4-7.8,4c-4.6,0-6.9-1.8-6.9-5.4
			c0-2.6,1.2-6.7,3.7-12.5c1.7-4.1,3.2-7.2,4.6-9.5l-0.3-0.6c-2,1.1-5.9,5.4-11.7,12.9c-2.9,4-5.8,8.3-8.3,12.9
			c-0.5,1-2.4,1.8-5.8,2.2c-1.1,0.2-1.7,0-1.7-0.6c0-0.4,1.8-4.5,5.5-12.2c4.1-8.3,6.3-13,6.7-14.3l-0.5-0.6
			c-1.9,1-5.9,5.3-11.7,12.9c-3.8,4.8-6.8,8.9-9.1,12.2c-0.3,0.5-0.9,1-2.2,1.6c-1.2,0.6-2.3,0.9-3.3,0.9c-0.9,0-1.5-0.5-1.5-1.5
			c0-0.6,2.2-5.3,6.6-14.2c4-8,5.9-13,5.9-15.1c0-1.6-0.6-2.3-1.7-2.3c-0.2,0-1.6,0.4-4.2,1.3c-0.3,0-0.6-0.3-0.8-0.8
			c-0.2-0.5-0.3-0.9-0.1-1.1c2.9-2.2,6-3.3,9.5-3.3c3.2,0,4.8,1.4,4.8,4.2c0,2.6-2.1,8-6.3,16.4l0.5,0.1c2.3-3.2,5.5-6.9,9.7-11.1
			c4.1-4.1,7.1-6.8,8.8-7.9c1.7-1.1,3.7-1.6,5.9-1.6c1.1,0,1.7,0.3,1.7,0.9c0-0.1-0.6,1-1.7,3.3l-6.9,13.9
			c6.9-8.6,12.4-14.1,16.6-16.6c1.7-1.1,3.5-1.7,5.3-1.7C931.4,236.5,932,236.9,932,237.8z"/>
		<path class="st1" d="M975.3,238c-8.9,16.9-13.4,27.2-13.4,31.1c0,1.3,0.4,1.9,1.2,1.9c1.2,0,2.9-1.2,5.1-3.5
			c2.2-2.3,3.6-4.3,4.3-5.9c1.2-0.5,2-0.3,2.4,0.5c-0.9,2-2.5,4.2-4.9,6.7c-3.1,3.3-6.2,4.9-9.1,4.9c-1.2,0-2.3-0.5-3.3-1.5
			c-1.2-1-1.8-2.4-1.8-4.2c0-1.7,0.7-4.5,2.1-8.2c-7.1,9.1-12.4,13.7-16,13.7s-5.4-1.7-5.4-5.3c0-2,1.6-6.6,4.9-13.6
			c2-4.4,4.1-8.8,6.1-13.1c0.3-0.9,0-1.3-0.9-1.3c-1.8,0-2.7-0.6-2.7-1.8c0-1.2,0.7-1.7,2.2-1.7c3.4,0.3,6.6,0.1,9.7-0.5
			c0.6-0.2,1.1,0,1.5,0.3s0.3,0.8,0,1.5c-2.4,4.8-4.8,9.7-7.2,14.6c-4.5,9.2-6.7,14.6-6.7,15.9c0,0.7,0.4,1.1,1.2,1.1
			c2,0,7.9-6.6,17.7-19.9c1.7-3.6,3.6-7.3,5.5-11.2c0.6-1.4,1.4-2.1,2.2-2.1c0.3,0,0.9,0,2-0.1c1-0.1,1.6-0.1,2-0.1
			C975.4,236.2,975.9,236.8,975.3,238z"/>
	</g>
</g>
<g id="Layer_6">
	<g id="Layer_5">
		<g id="Layer_18_1_" class="st2">
			<g id="Layer_16_1_" class="st3">
				<g class="st4">
					<path class="st5" d="M168.1,358.8l-1.3-5.2h-27.6l-1.3,5.2c-3.9,16.1-10.2,19.3-18.1,19.3v-1.4c3.5-0.8,5.4-4.6,9-18.4
						l6.6-25.3c2.8-10.9,7.9-16.2,17.6-16.2c9.8,0,14.8,5.3,17.6,16.2l6.6,25.3c3.6,13.8,5.5,17.6,9,18.4v1.4
						C178.3,378.1,172,374.9,168.1,358.8z M162,333c-1.5-6-3.7-9.2-9-9.2s-7.5,3.2-9,9.2l-3.3,13.5h24.6L162,333z"/>
					<path class="st5" d="M206.4,347.9l-2.3,12.7c-2.1,11.6-8.2,17.4-17.2,17.4v-1.2c2.7-0.7,5.6-3.6,9-17.5l3.1-12.6
						c1.8-7.4,6.1-11,12.9-11c6.8,0,11.1,3.6,12.9,11l3.1,12.6c3.4,14,6.2,16.9,9,17.5v1.2c-9,0-15.1-5.8-17.2-17.4l-2.3-12.7
						c-0.7-3.6-2.1-5.9-5.5-5.9C208.4,342,207.1,344.3,206.4,347.9z"/>
					<path class="st5" d="M257.6,347.9l-2.3,12.7c-2.1,11.6-8.2,17.4-17.2,17.4v-1.2c2.7-0.7,5.6-3.6,9-17.5l3.1-12.6
						c1.8-7.4,6.1-11,12.9-11s11.1,3.6,12.9,11l3.1,12.6c3.4,14,6.2,16.9,9,17.5v1.2c-9,0-15.1-5.8-17.2-17.4l-2.3-12.7
						c-0.7-3.6-2.1-5.9-5.5-5.9S258.3,344.3,257.6,347.9z"/>
					<path class="st5" d="M317.3,371.7h-0.2c-3.1,4.7-7.7,6.6-12.9,6.6c-6.2,0-12.2-4.4-12.2-12.1c0-8.6,6.2-13.6,21.9-13.6h3v-1.5
						c0-6.6-2.1-9.1-7.9-9.1c-1.5,0-4.2,0.5-5.8,1.4c-2.2,1.1-4.4,2-5.8,2c-2,0-3.8-1.5-3.8-3.8s2-3.9,5.9-4.8
						c2.4-0.6,5.6-1.1,9.7-1.1c8.8,0,15.6,5.2,15.6,15.1v14.7c0,10.5,0.6,10.9,4.7,11.5v1.2C320.5,378.2,317.3,377.4,317.3,371.7z
						 M316.9,358.8h-2.8c-11,0-14,3.5-14,7.4c0,2.7,2.1,5.8,5.8,5.8c6.1,0,11-3.3,11-12.3V358.8z"/>
					<path class="st5" d="M356.3,343.2v19.9c0,11.6,0.3,12.3,3.4,12.8v1.2h-11.3v-33.9c-12.8,0-13.5,0.8-14,3.8h-1.2v-10.1h38.2v6.3
						L356.3,343.2L356.3,343.2z"/>
					<path class="st5" d="M399,354.2h-8.7v7.5c0,12.8,0.3,13.8,4.1,14v1.4h-16.3v-1.4c3-0.3,3.5-1,3.5-14v-28.2
						c0-12.9-0.5-13.6-3.5-14V318h21c13.6,0,22.1,6.6,22.1,18.1S412.6,354.2,399,354.2z M398.3,325.1h-8v22.1h8
						c6.9,0,13.8-3.2,13.8-11C412.1,328.2,405.3,325.1,398.3,325.1z"/>
					<path class="st5" d="M452,371.7h-0.2c-3.1,4.7-7.7,6.6-12.9,6.6c-6.2,0-12.2-4.4-12.2-12.1c0-8.6,6.2-13.6,21.9-13.6h3v-1.5
						c0-6.6-2.1-9.1-7.9-9.1c-1.5,0-4.2,0.5-5.8,1.4c-2.2,1.1-4.4,2-5.8,2c-2,0-3.8-1.5-3.8-3.8s2-3.9,5.9-4.8
						c2.4-0.6,5.6-1.1,9.7-1.1c8.8,0,15.6,5.2,15.6,15.1v14.7c0,10.5,0.6,10.9,4.7,11.5v1.2C455.2,378.2,452,377.4,452,371.7z
						 M451.7,358.8h-2.9c-11,0-14,3.5-14,7.4c0,2.7,2.1,5.8,5.8,5.8c6.1,0,11-3.3,11-12.3v-0.9H451.7z"/>
				</g>
				<g class="st4">
					<path class="st6" d="M214.4,458.1h-20.7v-1.2c2.7-0.3,3.1-0.9,3.1-12.5v-25.1c0-11.5-0.5-12.1-3.1-12.5v-1.2h18.6
						c10.2,0,19.6,3.3,19.6,13c0,4-1.8,8.4-7.7,10.9v0.4c6.9,1.7,11.1,6.7,11.1,13.5C235.4,451.7,229.7,458.1,214.4,458.1z
						 M212.1,411.9h-7.5V428h7.5c7.7,0,11.9-2.7,11.9-8.3C224,414.3,219.7,411.9,212.1,411.9z M213.8,434.2h-9.2v17.6h9.2
						c8.3,0,13.6-1.9,13.6-8.5C227.4,436.9,222.2,434.2,213.8,434.2z"/>
					<path class="st6" d="M263.8,443.1c-5,0-7.1-0.8-7.1-3.2c0-1.6,1.2-2.7,2.7-2.7c0.8,0,2.4,0.3,3.3,0.3c4.5,0,6.1-2.3,6.1-5
						c0-3-2.6-5.5-7.4-5.5c-8.4,0-12.5,5.9-12.5,13.3c0,10.6,6.5,13.3,14.7,13.3c3.9,0,9-1.4,11.7-3.2v6.5
						c-4.2,1.4-8.8,2.3-13.9,2.3c-14,0-19.7-9.2-19.7-18.9c0-12.2,8.2-18.9,19.7-18.9c7.4,0,14.4,4,14.4,11.3
						C275.8,438.8,271.2,443.1,263.8,443.1z"/>
					<path class="st6" d="M311.4,430.5c-1,0-2.6-0.7-4.8-2.1c-1.7-1.1-4.1-1.5-5.1-1.5c-7.6,0-12.2,5.5-12.2,13.3
						c0,10.9,6.9,13.3,14.9,13.3c3.3,0,6.8-0.8,10-2.4v6.2c-3.6,1.1-7.9,1.7-12,1.7c-12.4,0-20.1-6.9-20.1-18.9
						c0-11.6,7.7-18.9,19.4-18.9c1.7,0,5.3,0.5,6.8,0.9c4,1.2,6.4,2.4,6.4,4.9C314.8,429,313.3,430.5,311.4,430.5z"/>
					<path class="st6" d="M340.4,428v17.7c0,10.3,0.3,10.9,3,11.3v1.1h-10V428c-11.3,0-12,0.7-12.4,3.3h-1.1v-9h33.9v5.6h-13.4V428z
						"/>
					<path class="st6" d="M384.9,458.1l-0.2-5h-0.4c-2.1,4-6,6.1-10.8,6.1c-7.6,0-13-4.9-13-14.1v-9.7c0-10.4-0.5-10.9-2.8-11.3V423
						h2.8c2.7,0,5.2-0.6,5.9-1.2h1.1v22.9c0,5.9,3,9,7.6,9c6.8,0,9.4-6.8,9.4-18.1v-13.1h7v35.7L384.9,458.1L384.9,458.1z"/>
				</g>
			</g>
		</g>
		<g>
			<g>
				<path class="st7" d="M291.8,194.6c22.1,0.1,40.5-17.6,40.8-40.1c0.3-22.4-17.6-40.8-40.1-41c-22.4-0.3-40.4,17.6-41,39.5
					C251,175.8,269.2,194.3,291.8,194.6z"/>
				<path class="st7" d="M251.5,183.5c0.2,1.3,0.4,2.6,0.6,3.9c1.6,7.2,5.3,13.3,10.6,18.4c6.7,6.3,14.7,9.8,23.8,10.9
					c10,1.3,19.4-0.6,28-5.9c9-5.5,15-13.3,17.4-23.8c0.3-1.3,0.4-2.4,0.6-3.7c-10.6,12.8-24.2,19.2-40.5,19.2
					C275.7,202.7,262.1,196.3,251.5,183.5z"/>
			</g>
		</g>
		<g>
			<g>
				<path class="st6" d="M22,8.6c-1.8,1.6-2.9,3.8-3.7,6c-0.2,0.6-0.4,1.1-0.5,1.7l-0.3,1.8c-0.1,0.6-0.1,1.2-0.1,1.8
					c0,0.6-0.1,1.2,0,1.8c0.2,4.8,1.8,9.3,3.9,13.6l1.7,3.1c0.3,0.5,0.6,1,0.9,1.6l1,1.5l2,3c0.7,1,1.5,1.9,2.2,2.8l2.2,2.8l2.4,2.7
					c0.8,0.9,1.6,1.8,2.4,2.7l2.6,2.5c0.9,0.8,1.7,1.7,2.6,2.5l2.7,2.3c1.8,1.6,3.8,2.9,5.7,4.4c0.9,0.7,1.9,1.4,2.9,2.1l3,2l3,1.9
					l1.5,1l1.6,0.9c8.2,4.8,17,8.8,26.2,11.7l0,0c0.1,0,0.1,0.1,0.1,0.2s-0.1,0.1-0.2,0.1c-4.8-0.6-9.6-1.9-14.2-3.5
					s-9.1-3.6-13.4-5.9C51.5,72.9,43.8,66.5,37,59.6L34.5,57c-0.8-0.9-1.6-1.9-2.4-2.8l-2.4-2.8l-2.2-3c-0.7-1-1.5-2-2.1-3l-1.9-3.1
					l-1-1.6c-0.3-0.5-0.6-1.1-0.9-1.6L20,35.9c-2-4.5-3.4-9.3-3.5-14.2c-0.1-0.6,0-1.2,0.1-1.8c0.1-0.6,0.1-1.2,0.2-1.8l0.4-1.8
					c0.1-0.6,0.4-1.2,0.6-1.8C18.7,12.2,20,10.1,22,8.6c0-0.2,0.1-0.1,0.1-0.1C22.1,8.4,22.1,8.5,22,8.6L22,8.6z"/>
			</g>
			<g>
				<path class="st6" d="M31.7,54.2c-0.1,1.9,0,3.9,0.4,5.9c0.1,1,0.4,1.9,0.6,2.9c0.3,0.9,0.6,1.9,0.9,2.8C35,69.5,37,72.9,39.4,76
					c4.8,6.2,11.1,11.1,17.8,15c3.3,2,7,3.6,10.5,5.2c1.7,0.7,3.6,1.2,5.5,1.7l5.7,1.6l11.4,3.2l5.7,1.6c1.9,0.6,3.8,1.1,5.8,1.5
					l0,0c0.1,0,0.1,0.1,0.1,0.2s-0.1,0.1-0.1,0.1c-4,0-8-0.6-11.9-1.3c-3.9-0.7-7.8-1.5-11.7-2.4c-1.9-0.5-3.9-1-5.8-1.5
					c-1.9-0.6-3.8-1.2-5.8-2C63,97,59.4,95.3,56,93c-6.8-4.3-13.1-9.6-17.8-16.2c-2.3-3.3-4.2-6.9-5.4-10.8c-0.3-1-0.5-1.9-0.8-2.9
					c-0.2-1-0.4-2-0.5-3c-0.3-2-0.3-4-0.1-6c0-0.1,0.1-0.1,0.2-0.1C31.7,54,31.7,54.1,31.7,54.2L31.7,54.2z"/>
			</g>
			<g>
				<path class="st6" d="M37.4,74.6c0.3,2.7,0.9,5.4,1.6,8c0.7,2.6,1.6,5.2,2.6,7.7s2.2,5,3.5,7.3c1.3,2.4,2.7,4.7,4.3,6.9
					c6.1,8.9,14.3,16.3,23.6,21.7c4.6,2.7,9.5,5,14.6,6.8c2.5,1,5.1,1.9,7.7,2.8c2.5,0.9,5.1,1.9,7.6,2.7c10.2,3.4,21,4.6,31.9,5.9
					c0.1,0,0.1,0.1,0.1,0.2c0,0.1-0.1,0.1-0.1,0.1c-5.5,0.1-11,0.1-16.4-0.4c-2.7-0.2-5.5-0.6-8.2-1.1s-5.4-1.1-8.1-1.9
					c-5.3-1.6-10.4-3.6-15.5-5.6c-5.1-2.1-10.1-4.6-14.8-7.5c-9.4-5.9-17.5-13.7-23.6-23c-1.5-2.3-2.8-4.7-4.1-7.2
					c-1.2-2.5-2.3-5-3.2-7.6s-1.7-5.2-2.3-7.9c-0.6-2.7-1.1-5.4-1.3-8.1c0-0.1,0.1-0.2,0.1-0.2C37.3,74.4,37.4,74.5,37.4,74.6
					L37.4,74.6z"/>
			</g>
			<g>
				<path class="st6" d="M24.6,8.6c2.4,4.5,5.6,8.6,9,12.5c3.4,3.9,7,7.5,10.8,10.9s7.8,6.7,11.9,9.7c4.1,3.1,8.4,5.9,12.7,8.7
					c17.3,10.9,36.2,19.3,55.5,26.1c9.7,3.4,19.5,6.2,29.4,8.9l7.5,1.9c2.5,0.6,5,1.2,7.5,1.8l7.5,1.7c2.5,0.6,5,1,7.5,1.6
					c2.5,0.5,5,1.1,7.5,1.6l7.6,1.4c2.5,0.5,5,1,7.5,1.4s5.1,0.7,7.6,1c5.1,0.6,10.2,1,15.3,1.3c2.6,0.2,5.1,0.3,7.7,0.4
					c2.6,0.1,5.1,0.2,7.7-0.1l0,0c0.1,0,0.2,0.1,0.2,0.1c0,0.1,0,0.1-0.1,0.2c-2.6,0.4-5.1,0.5-7.7,0.6c-2.6,0.1-5.2,0.1-7.7,0.1
					c-5.2-0.1-10.3-0.3-15.5-0.6c-2.6-0.2-5.2-0.4-7.7-0.7c-2.6-0.3-5.1-0.8-7.7-1.1l-7.6-1.2c-2.5-0.4-5.1-0.9-7.6-1.4
					c-10.1-1.9-20.2-4.3-30.1-7c-9.9-2.8-19.8-5.9-29.5-9.5c-19.3-7.1-38.2-15.8-55.5-27.1c-4.3-2.9-8.5-5.8-12.6-9
					c-4.1-3.1-8-6.5-11.8-10s-7.4-7.2-10.7-11.2s-6.4-8.1-8.8-12.7c0-0.1,0-0.2,0.1-0.2C24.4,8.5,24.5,8.5,24.6,8.6L24.6,8.6z"/>
			</g>
			<g>
				<path class="st6" d="M135.4,158.3c-0.2,2.5-0.1,5.1,0.2,7.6c0.4,2.5,1.1,4.9,2.5,6.9c1.4,1.9,3.6,3,5.9,3.7
					c2.3,0.7,4.8,1,7.3,1.1s5-0.2,7.3-0.6c2.4-0.5,5-1,7.5-1.5c2.5-0.4,5.1-0.8,7.7-1c2.6-0.2,5.2-0.3,7.8,0.1
					c0.1,0,0.1,0.1,0.1,0.2c0,0.1-0.1,0.1-0.1,0.1c-2.5,0.3-5,0.9-7.5,1.5l-7.4,1.9c-2.5,0.6-4.9,1.3-7.5,1.8
					c-2.7,0.4-5.4,0.3-8,0.1c-2.6-0.3-5.3-0.8-7.8-1.7c-1.3-0.5-2.5-1.1-3.6-1.9c-1.1-0.8-2.2-1.8-2.9-3c-1.5-2.4-2-5-2.2-7.6
					s0-5.2,0.4-7.7c0-0.1,0.1-0.1,0.2-0.1C135.3,158.1,135.4,158.2,135.4,158.3L135.4,158.3z"/>
			</g>
			<g>
				<path class="st6" d="M180.3,182.7c-0.5,1.8-0.6,3.7-0.3,5.4c0.3,1.8,1.3,3.3,2.6,4.3c2.8,2.1,6.5,2.7,10,2.7
					c1.8,0,3.6-0.3,5.2-0.7l2.6-0.7c0.9-0.2,1.8-0.4,2.8-0.6c1.8-0.4,3.7-0.7,5.6-0.9c1.9-0.2,3.8-0.3,5.7,0c0.1,0,0.1,0.1,0.1,0.2
					c0,0.1-0.1,0.1-0.1,0.1c-3.6,1-7.1,2.2-10.7,3.3c-0.9,0.3-1.8,0.6-2.7,0.8c-0.4,0.1-0.9,0.3-1.4,0.4l-0.7,0.2
					c-0.3,0.1-0.5,0.1-0.8,0.2c-2,0.4-4,0.3-5.9,0.2c-2-0.1-3.9-0.5-5.8-1.1c-1.9-0.6-3.7-1.5-5.2-2.9s-2.4-3.4-2.6-5.4
					c-0.1-2,0.2-3.9,1-5.6c0-0.1,0.1-0.1,0.2-0.1C180.3,182.6,180.4,182.6,180.3,182.7L180.3,182.7z"/>
			</g>
			<g>
				<path class="st6" d="M562.2,8.6c1.9,1.6,3.2,3.8,4.1,6c0.2,0.6,0.4,1.2,0.6,1.8l0.4,1.8c0.1,0.6,0.1,1.2,0.2,1.8
					c0,0.6,0.1,1.2,0.1,1.8c0,4.9-1.5,9.7-3.5,14.2l-1.7,3.3c-0.3,0.5-0.6,1.1-0.9,1.6l-1,1.6l-1.9,3.1c-0.7,1-1.4,2-2.1,3l-2.2,3
					l-2.4,2.8c-0.8,0.9-1.6,1.9-2.4,2.8l-2.5,2.6c-6.8,7-14.5,13.3-23.2,17.9c-4.3,2.3-8.8,4.3-13.4,5.9s-9.3,2.9-14.2,3.5
					c-0.1,0-0.2,0-0.2-0.1s0-0.1,0.1-0.2l0,0c9.2-2.9,18-6.9,26.2-11.7l1.6-0.9l1.5-1l3-1.9l3-2c1-0.7,2-1.3,2.9-2.1
					c1.9-1.4,3.9-2.8,5.7-4.4l2.7-2.3c0.9-0.8,1.7-1.6,2.6-2.5l2.6-2.5c0.8-0.9,1.6-1.8,2.4-2.7l2.4-2.7l2.2-2.8
					c0.7-1,1.5-1.9,2.2-2.8l2-3l1-1.5c0.3-0.5,0.6-1,0.9-1.6l1.7-3.1c2.1-4.3,3.7-8.9,3.9-13.6c0.1-0.6,0-1.2,0-1.8
					c0-0.6,0-1.2-0.1-1.8l-0.3-1.8c-0.1-0.6-0.3-1.1-0.5-1.7c-0.8-2.2-1.9-4.4-3.7-6l0,0c-0.1-0.1-0.1-0.2,0-0.2
					C562.1,8.5,562.2,8.5,562.2,8.6z"/>
			</g>
			<g>
				<path class="st6" d="M552.6,54.3c0.3,2,0.2,4-0.1,6c-0.1,1-0.3,2-0.5,3c-0.2,1-0.5,1.9-0.8,2.9C550,70,548,73.6,545.8,77
					c-4.7,6.6-11,11.9-17.8,16.2c-3.4,2.2-7,4-10.6,5.9c-2,0.9-3.9,1.4-5.8,2c-1.9,0.6-3.9,1-5.8,1.5c-3.9,0.9-7.8,1.7-11.7,2.4
					c-3.9,0.6-7.9,1.3-11.9,1.3c-0.1,0-0.2-0.1-0.2-0.1c0-0.1,0.1-0.1,0.1-0.1l0,0c1.9-0.4,3.9-0.9,5.8-1.5l5.7-1.6l11.4-3.2
					l5.7-1.6c1.9-0.5,3.8-1.1,5.5-1.7c3.5-1.6,7.2-3.2,10.5-5.2c6.8-3.9,13-8.8,17.8-15c2.3-3.1,4.4-6.5,5.8-10.2
					c0.3-0.9,0.6-1.9,0.9-2.8c0.2-1,0.5-1.9,0.6-2.9c0.4-1.9,0.5-3.9,0.4-5.9l0,0c0-0.1,0.1-0.2,0.1-0.2
					C552.6,54.2,552.6,54.3,552.6,54.3z"/>
			</g>
			<g>
				<path class="st6" d="M546.9,74.8c-0.2,2.7-0.7,5.4-1.3,8.1s-1.4,5.3-2.3,7.9c-0.9,2.6-2,5.1-3.2,7.6s-2.6,4.9-4.1,7.2
					c-6,9.2-14.2,17.1-23.6,23c-4.7,3-9.6,5.5-14.8,7.5c-5.1,2-10.1,4.1-15.5,5.6c-2.7,0.8-5.4,1.4-8.1,1.9s-5.5,0.8-8.2,1.1
					c-5.5,0.5-11,0.5-16.4,0.4c-0.1,0-0.1-0.1-0.1-0.2c0-0.1,0.1-0.1,0.1-0.1c10.8-1.3,21.7-2.5,31.9-5.9c2.6-0.8,5.1-1.8,7.6-2.7
					s5.1-1.9,7.7-2.8c5.1-1.8,10-4.1,14.6-6.8c9.3-5.4,17.4-12.9,23.6-21.7c1.5-2.2,2.9-4.5,4.3-6.9c1.3-2.4,2.4-4.8,3.5-7.3
					c1-2.5,1.9-5.1,2.6-7.7c0.7-2.6,1.3-5.3,1.6-8l0,0c0-0.1,0.1-0.1,0.2-0.1C546.9,74.7,547,74.8,546.9,74.8z"/>
			</g>
			<g>
				<path class="st6" d="M559.8,8.9c-2.4,4.6-5.5,8.7-8.8,12.7s-6.9,7.7-10.7,11.2s-7.7,6.9-11.8,10c-4.1,3.2-8.3,6.1-12.6,9
					c-17.3,11.3-36.2,19.9-55.5,27.1c-9.7,3.6-19.5,6.6-29.5,9.5c-10,2.7-20,5.1-30.1,7c-2.5,0.5-5.1,1-7.6,1.4l-7.6,1.2
					c-2.6,0.4-5.1,0.8-7.7,1.1c-2.6,0.3-5.2,0.5-7.7,0.7c-5.2,0.3-10.3,0.5-15.5,0.6c-2.6,0-5.2,0-7.7-0.1c-2.6-0.1-5.2-0.2-7.7-0.6
					c-0.1,0-0.1-0.1-0.1-0.2s0.1-0.1,0.2-0.1l0,0c2.5,0.2,5.1,0.1,7.7,0.1c2.6-0.1,5.1-0.2,7.7-0.4c5.1-0.3,10.2-0.7,15.3-1.3
					c2.5-0.3,5.1-0.6,7.6-1s5-0.9,7.5-1.4l7.6-1.4c2.5-0.5,5-1,7.5-1.6s5-1,7.5-1.6l7.5-1.7c2.5-0.6,5-1.2,7.5-1.8l7.5-1.9
					c9.9-2.7,19.8-5.5,29.4-8.9c19.3-6.8,38.2-15.1,55.5-26.1c4.3-2.8,8.6-5.6,12.7-8.7c4.1-3,8.1-6.3,11.9-9.7
					c3.8-3.4,7.4-7.1,10.8-10.9c3.3-3.9,6.5-8,9-12.5l0,0c0-0.1,0.1-0.1,0.2-0.1C559.8,8.8,559.8,8.9,559.8,8.9z"/>
			</g>
			<g>
				<path class="st6" d="M449,158.4c0.4,2.5,0.6,5.1,0.4,7.7c-0.2,2.6-0.7,5.3-2.2,7.6c-0.7,1.2-1.8,2.2-2.9,3s-2.4,1.4-3.6,1.9
					c-2.5,0.9-5.2,1.4-7.8,1.7c-2.6,0.2-5.3,0.4-8-0.1c-2.6-0.5-5-1.1-7.5-1.8l-7.4-1.9c-2.5-0.6-4.9-1.1-7.5-1.5
					c-0.1,0-0.1-0.1-0.1-0.2c0-0.1,0.1-0.1,0.1-0.1c2.6-0.4,5.2-0.3,7.8-0.1c2.6,0.2,5.2,0.6,7.7,1s5.1,1,7.5,1.5
					c2.3,0.4,4.8,0.6,7.3,0.6c2.5-0.1,5-0.4,7.3-1.1c2.3-0.7,4.5-1.8,5.9-3.7s2.1-4.4,2.5-6.9s0.4-5.1,0.2-7.6l0,0
					c0-0.1,0.1-0.2,0.1-0.2C448.9,158.3,449,158.4,449,158.4z"/>
			</g>
			<g>
				<path class="st6" d="M404,182.8c0.8,1.7,1.2,3.7,1,5.6c-0.1,2-1,4-2.6,5.4c-1.5,1.4-3.3,2.3-5.2,2.9c-1.9,0.6-3.8,0.9-5.8,1.1
					c-2,0.1-3.9,0.2-5.9-0.2c-0.3,0-0.5-0.1-0.8-0.2l-0.7-0.2c-0.5-0.1-0.9-0.2-1.4-0.4c-0.9-0.3-1.8-0.6-2.7-0.8
					c-3.6-1.1-7-2.4-10.7-3.3c-0.1,0-0.1-0.1-0.1-0.2c0-0.1,0.1-0.1,0.1-0.1c1.9-0.3,3.9-0.2,5.7,0c1.9,0.2,3.8,0.5,5.6,0.9
					c0.9,0.2,1.8,0.4,2.8,0.6l2.6,0.7c1.7,0.4,3.5,0.7,5.2,0.7c3.5,0.1,7.3-0.6,10-2.7c1.3-1,2.3-2.5,2.6-4.3
					c0.3-1.7,0.2-3.6-0.3-5.4l0,0c0-0.1,0-0.2,0.1-0.2C403.9,182.7,404,182.8,404,182.8z"/>
			</g>
			<g>
				<path class="st6" d="M247.7,225.7c-5.5,4.6-11.5,8.7-18.1,11.7c-3.3,1.5-6.8,2.6-10.4,3.2c-3.5,0.6-7,1.2-10.5,2
					s-6.9,1.7-10.1,2.9c-1.6,0.6-3.2,1.3-4.6,2.2c-1.5,0.8-2.9,1.7-4.1,2.8c-1.2,1.1-2.2,2.4-3,3.8c-0.4,0.7-0.7,1.5-1,2.2
					c-0.2,0.8-0.4,1.5-0.5,2.4c-0.1,1.6,0,3.4,0.3,5.1s0.7,3.5,1.3,5.2l0,0c0,0.1,0,0.2-0.1,0.2s-0.1,0-0.2-0.1
					c-1.8-3.1-3.2-6.6-3.4-10.5c-0.1-4,1.8-7.7,4.5-10.5c2.8-2.8,6.3-4.4,9.8-5.6c3.5-1.2,7.1-1.9,10.7-2.5
					c3.6-0.6,7.1-1.1,10.7-1.5c3.5-0.4,6.9-1.4,10.2-2.7c6.6-2.6,12.8-6.2,18.5-10.5l0,0c0.1,0,0.2,0,0.2,0
					C247.8,225.6,247.8,225.7,247.7,225.7z"/>
			</g>
			<g>
				<path class="st6" d="M259.2,237.1c-0.9,3.4-2.1,6.7-3.4,9.9c-0.7,1.6-1.5,3.2-2.5,4.7c-1,1.6-2.4,2.7-3.7,3.9
					c-5.4,4.5-11.2,8.3-17,12.3c-1.4,1-2.9,2-4.2,2.9c-1.3,1-2.4,2.2-3.5,3.4c-1.1,1.3-2,2.6-2.9,4s-1.7,2.9-2.3,4.3
					c-0.6,1.5-1,3-1.1,4.6s0.1,3.2,0.4,4.8c0.4,1.6,1.1,3.1,2.1,4.3c1,1.3,2.3,2.4,3.9,3.2c0.1,0,0.1,0.1,0.1,0.2s-0.1,0.1-0.2,0.1
					c-1.7-0.4-3.4-1.3-4.7-2.5c-1.4-1.3-2.4-2.9-3.1-4.6c-0.7-1.7-1-3.6-1.1-5.5s0.3-3.9,0.9-5.6c1.3-3.5,3.3-6.6,5.8-9.3
					c1.2-1.3,2.6-2.6,4.2-3.6c1.5-1,3-1.9,4.5-2.8c5.9-3.7,11.9-7.3,17.4-11.4c1.3-1.1,2.7-2.1,3.7-3.4c1-1.3,1.8-2.9,2.6-4.4
					c1.5-3.1,2.8-6.3,4-9.6c0-0.1,0.1-0.1,0.2-0.1C259.2,237,259.3,237.1,259.2,237.1z"/>
			</g>
			<g>
				<path class="st6" d="M258.8,278.5c-0.5,1.9-1.2,3.7-2.1,5.5c-0.8,1.8-1.8,3.5-2.9,5.2c-1.1,1.7-2.3,3.2-3.7,4.7
					c-1.3,1.4-2.4,2.9-3.2,4.5c-0.7,1.6-1.1,3.3-0.6,4.7c0.2,0.7,0.6,1.3,1.1,1.9s1.1,1.1,1.8,1.6c0.6,0.4,1.4,0.7,2.1,0.9
					c0.8,0.2,1.7,0.2,2.6,0.1c1.8-0.1,3.7-0.6,5.5-1.3l0,0c0.1,0,0.2,0,0.2,0.1s0,0.1,0,0.2c-1.5,1.4-3.2,2.5-5.3,3.1
					c-1,0.3-2.1,0.5-3.3,0.4c-1.1-0.1-2.3-0.4-3.4-0.9c-1-0.6-1.9-1.2-2.7-2.1s-1.3-2-1.6-3.2s-0.2-2.4,0.1-3.5
					c0.2-1.1,0.7-2.1,1.2-3c1.1-1.8,2.4-3.4,3.9-4.8c1.4-1.3,2.7-2.7,3.9-4.2c2.4-3,4.4-6.4,5.9-9.9l0,0c0-0.1,0.1-0.1,0.2-0.1
					C258.8,278.4,258.8,278.5,258.8,278.5z"/>
			</g>
			<g>
				<path class="st6" d="M273.3,304.5c3.7,2.3,7.9,3.9,12.2,4.8c2.1,0.4,4.3,0.7,6.5,0.7c2.1,0,4.3-0.2,6.5-0.6
					c4.3-0.7,8.5-2,12.6-3.4c2-0.8,4.1-1.6,6.1-2.4l0.7-0.3l0.2-0.1l0.3-0.1l0.5-0.2c0.6-0.2,1.2-0.3,1.8-0.4c1.2-0.2,2.5-0.3,3.8,0
					l-1.6,2c-1-2.6-1.9-5.1-2.7-7.8c-0.4-1.3-0.7-2.7-1-4c-0.3-1.4-0.5-2.7-0.5-4.1c0-0.1,0.1-0.2,0.2-0.2s0.1,0,0.1,0.1
					c0.4,1.3,0.9,2.5,1.4,3.8c0.5,1.2,1.1,2.5,1.6,3.7l1.7,3.7l1.7,3.6c0.3,0.7,0,1.6-0.7,1.9c-0.2,0.1-0.5,0.2-0.7,0.1h-0.1
					c-0.9-0.1-1.8,0-2.8,0.2c-0.5,0.1-1,0.2-1.4,0.4l-0.3,0.1h-0.1l-0.2,0.1l-0.8,0.3c-2.1,0.9-4.2,1.5-6.4,2.2
					c-4.3,1.2-8.7,2.3-13.2,2.8c-2.2,0.3-4.5,0.4-6.8,0.2c-2.3-0.1-4.5-0.6-6.7-1.1c-4.3-1.2-8.5-3.1-12.1-5.8c-0.1,0-0.1-0.1,0-0.2
					C273.1,304.4,273.2,304.4,273.3,304.5L273.3,304.5z"/>
			</g>
			<g>
				<path class="st6" d="M336.5,276.8c1.4,2.8,3.6,5.1,6.2,6.8l1,0.6l1,0.6c0.7,0.4,1.5,0.8,2.1,1.2c1.4,0.9,2.7,2.1,3.7,3.5
					s1.8,3.2,1.8,5.2c0,0.5-0.1,1-0.2,1.5c-0.1,0.3-0.1,0.5-0.2,0.7s-0.1,0.4-0.2,0.6c-0.4,0.9-1,1.8-1.9,2.5
					c-0.9,0.6-1.8,1-2.8,1.1c-0.5,0.1-0.9,0.1-1.4,0.1c-0.4,0-0.9,0-1.3-0.1c-1.7-0.2-3.3-0.6-4.8-1.3c-0.1,0-0.1-0.1-0.1-0.2
					s0.1-0.1,0.1-0.1c1.6-0.2,3.2-0.3,4.7-0.5s2.8-0.7,3.6-1.4c0.4-0.4,0.6-0.8,0.9-1.4l0.2-0.5c0.1-0.2,0.1-0.3,0.2-0.5
					s0.2-0.5,0.2-0.8c0.2-1.2-0.1-2.6-0.8-3.8c-0.7-1.2-1.7-2.3-2.9-3.2c-0.6-0.5-1.2-0.9-1.9-1.3l-1-0.7l-1-0.8
					c-1.3-1.1-2.4-2.3-3.4-3.6c-1-1.3-1.8-2.7-2.2-4.3c0-0.1,0-0.2,0.1-0.2C336.4,276.6,336.5,276.7,336.5,276.8L336.5,276.8z"/>
			</g>
			<g>
				<path class="st6" d="M337.3,250.3c0.9,4.8,3.8,9,7.4,12c3.6,3.1,8.1,5.2,12.4,7.6c2.2,1.2,4.3,2.5,6.4,4.1
					c2,1.6,3.9,3.7,4.8,6.4c0.2,0.7,0.3,1.4,0.5,2c0.1,0.7,0.1,1.4,0.1,2.1c-0.1,1.3-0.3,2.7-0.7,3.9c-0.9,2.5-2.5,4.7-4.7,6
					c-0.1,0-0.2,0-0.2,0c0-0.1,0-0.1,0-0.2l0,0c1.5-1.9,2.5-4.1,2.8-6.4c0.3-2.2,0.2-4.5-0.6-6.4c-1.7-3.8-5.6-6.9-9.7-9.4
					c-4.1-2.6-8.5-5-12.1-8.5c-1.8-1.8-3.3-3.8-4.5-6c-1.2-2.2-2-4.6-2.2-7.1c0-0.1,0.1-0.2,0.1-0.2
					C337.2,250.1,337.2,250.2,337.3,250.3L337.3,250.3z"/>
			</g>
			<g>
				<path class="st6" d="M344.7,233.4c2.2,1.9,4.7,3.3,7.3,4.4c2.6,1.1,5.4,1.9,8.2,2.3l2.1,0.3l2.1,0.2c1.5,0.1,2.9,0.2,4.4,0.3
					c2.9,0.3,5.8,0.7,8.7,1.4c2.9,0.6,5.7,1.5,8.5,2.6s5.5,2.7,7.7,4.9c2.3,2.3,3.7,4.9,4.9,7.7c1.1,2.8,1.9,5.7,1.8,8.7
					c0,0.1-0.1,0.1-0.2,0.1s-0.1,0-0.1-0.1l0,0c-0.8-2.8-2-5.4-3.4-7.8c-0.7-1.2-1.5-2.4-2.3-3.5c-0.8-1.2-1.7-2.1-2.7-3
					c-2-1.7-4.4-3.1-6.9-4.4c-2.5-1.2-5.2-2.2-7.9-3c-2.7-0.8-5.5-1.3-8.4-1.8c-1.4-0.2-2.8-0.4-4.3-0.5l-2.2-0.3l-2.2-0.4
					c-2.9-0.6-5.7-1.6-8.3-3c-2.6-1.3-5.1-3-7.1-5.1c-0.1-0.1-0.1-0.2,0-0.2C344.6,233.3,344.6,233.3,344.7,233.4L344.7,233.4z"/>
			</g>
			<g>
				<path class="st8" d="M260.5,103.2c3-6.7,5.9-13.4,8.4-20.3c1.3-3.4,2.5-6.9,3.4-10.4c0.2-0.9,0.4-1.7,0.6-2.6s0.3-1.7,0.5-2.6
					c0.2-1.7,0.2-3.5,0.2-5.3c-0.1-3.6-0.5-7.3-0.6-11s0.1-7.5,1.2-11.3c0.6-1.9,1.4-3.7,2.6-5.3s2.7-3,4.4-4.1
					c1.7-1.1,3.6-1.8,5.4-2.3c0.9-0.3,1.9-0.5,2.8-0.6c0.5-0.1,0.9-0.2,1.4-0.2c0.5-0.1,0.9-0.1,1.6-0.1c0.6,0,1.1,0.1,1.5,0.1
					c0.5,0,1,0.1,1.4,0.2c0.9,0.2,1.9,0.3,2.8,0.6c1.9,0.5,3.7,1.2,5.4,2.3c1.7,1.1,3.2,2.4,4.4,4.1c1.2,1.6,2,3.5,2.6,5.4
					c1.1,3.8,1.2,7.6,1.1,11.3s-0.5,7.4-0.7,11c-0.1,1.8-0.1,3.6,0.2,5.3c0.2,0.9,0.3,1.7,0.5,2.6s0.4,1.7,0.6,2.6
					c0.9,3.5,2.1,6.9,3.4,10.4c2.5,6.9,5.4,13.6,8.4,20.3c-1.8-3.2-3.5-6.5-5.1-9.8s-3.2-6.6-4.7-10c-1.4-3.4-2.8-6.8-3.9-10.3
					c-0.3-0.9-0.5-1.8-0.8-2.7c-0.2-0.9-0.4-1.8-0.6-2.8c-0.3-1.9-0.4-3.8-0.4-5.7c0-3.7,0.3-7.4,0.4-11c0-3.6-0.1-7.2-1.1-10.5
					c-0.5-1.6-1.2-3.2-2.2-4.5s-2.2-2.4-3.6-3.3c-1.4-0.9-3-1.5-4.7-1.9c-0.8-0.2-1.7-0.4-2.5-0.5c-0.4-0.1-0.9-0.1-1.3-0.2
					l-0.6-0.1c-0.2,0-0.4,0-0.6,0c-0.3,0-0.7,0.1-1.2,0.1c-0.4,0-0.9,0.1-1.3,0.2c-0.9,0.1-1.7,0.3-2.5,0.5
					c-1.7,0.4-3.3,1.1-4.7,1.9c-1.4,0.9-2.7,2-3.6,3.3c-1,1.3-1.7,2.8-2.2,4.5c-1,3.3-1.3,6.8-1.3,10.4s0.3,7.2,0.3,11
					c0,1.9-0.1,3.8-0.4,5.7c-0.2,0.9-0.4,1.9-0.6,2.8c-0.3,0.9-0.5,1.8-0.8,2.7c-1.1,3.5-2.5,7-3.9,10.3c-1.5,3.4-3,6.7-4.6,10
					C264,96.7,262.3,100,260.5,103.2z"/>
			</g>
			<g>
				<path class="st6" d="M293.9,59c-1.1,0.3-2.3,0.3-3.6,0.3c-0.9-0.2-1.9,0.5-1.6,1.6c0.5,1.4,1,2.8,1.5,4.2c0.3,1.2,0.4,2.7,1,3.7
					c0.4,0.5,1.1,0.3,1.3-0.1c0.3-0.8,0.4-1.6,0.3-2.6c1.1-1.5,1.7-3.5,2.5-5.2C295.8,59.9,295,58.6,293.9,59z"/>
				<path class="st6" d="M279.7,48.4c2.2,2,2.7,4,3.4,6.8c0.1,0.3,0.4,0.4,0.5,0.1c3.6-7-7.1-9.7-5.6-16.5c0.3-1.2,0.8-2.2,1.5-3.1
					c0.5-0.7,1.2-1.4,1.9-1.9c0.1-0.2,0.3-0.3,0.4-0.4c2.6-2.1,6.6-3.4,10.5-3.5c3.9,0.1,7.8,1.4,10.5,3.5c0.2,0.2,0.3,0.3,0.4,0.4
					c0.6,0.5,1.2,1,1.6,1.5c0.8,1,1.4,2.2,1.8,3.5c1.6,6.8-9.2,9.5-5.6,16.5c0.1,0.3,0.4,0.2,0.5-0.1c0.7-2.8,1.2-4.8,3.4-6.8
					c1-1,2.3-2,3.1-3.2c2.3-3.3,1.8-7.3-0.2-10.6c-0.5-0.8-1.1-1.5-1.7-2.1c-1.9-2-4.5-3.4-7.1-4c-1.3-0.4-3.2-0.8-5-1
					c-0.6-0.1-1.2-0.2-1.8-0.1c-0.7,0-1.3,0-1.9,0.1c-1.8,0.2-3.6,0.7-5,1c-2.9,0.7-5.8,2.4-7.8,4.8c-0.4,0.4-0.7,0.9-1,1.4
					c-0.8,1.3-1.3,2.7-1.6,4.2c-0.4,2.2,0,4.4,1.4,6.4C277.4,46.4,278.7,47.5,279.7,48.4z"/>
			</g>
		</g>
	</g>
</g>
</svg>
